<?xml version="1.0" ?><!DOCTYPE svg  PUBLIC '-//W3C//DTD SVG 1.1//EN'  'http://www.w3.org/Graphics/SVG/1.1/DTD/svg11.dtd'><svg height="100%" style="fill-rule:evenodd;clip-rule:evenodd;stroke-linejoin:round;stroke-miterlimit:1.41421;" version="1.1" viewBox="0 0 1062 1062" width="100%" xml:space="preserve" xmlns="http://www.w3.org/2000/svg" xmlns:xlink="http://www.w3.org/1999/xlink"><g><circle cx="531.308" cy="531.308" id="circle6" r="531.308" style="fill:rgb(37,183,211);"/><g><rect height="707.04" style="fill:rgb(34,54,75);" width="369.007" x="346.804" y="177.788"/><path d="M815.834,177.788L842.37,177.788L842.37,884.828L815.834,884.828L815.801,858.741C815.788,848.316 807.326,839.875 796.901,839.889L759.147,839.937C748.722,839.95 740.281,848.412 740.295,858.837L740.328,884.828L713.792,884.828L713.792,177.788L740.328,177.788L740.361,203.874C740.374,214.299 748.836,222.74 759.262,222.727L797.015,222.679C807.44,222.666 815.881,214.203 815.868,203.778L815.834,177.788ZM797.015,788.262C807.44,788.249 815.881,779.787 815.868,769.361L815.801,717.285C815.788,706.859 807.326,698.419 796.901,698.432L759.147,698.48C748.722,698.493 740.281,706.956 740.295,717.381L740.361,769.458C740.374,779.883 748.836,788.323 759.262,788.31L797.015,788.262ZM797.015,646.866C807.44,646.853 815.881,638.391 815.868,627.966L815.801,575.889C815.788,565.464 807.326,557.023 796.901,557.036L759.147,557.084C748.722,557.098 740.281,565.56 740.295,575.985L740.361,628.062C740.374,638.487 748.836,646.928 759.262,646.914L797.015,646.866ZM797.015,505.47C807.44,505.457 815.881,496.995 815.868,486.57L815.801,434.493C815.788,424.068 807.326,415.627 796.901,415.64L759.147,415.688C748.722,415.702 740.281,424.164 740.295,434.589L740.361,486.666C740.374,497.091 748.836,505.532 759.262,505.518L797.015,505.47ZM797.015,364.075C807.44,364.061 815.881,355.599 815.868,345.174L815.801,293.097C815.788,282.672 807.326,274.231 796.901,274.245L759.147,274.293C748.722,274.306 740.281,282.768 740.295,293.193L740.361,345.27C740.374,355.695 748.836,364.136 759.262,364.123L797.015,364.075Z" style="fill:rgb(34,54,75);"/><path d="M322.288,177.788L348.823,177.788L348.823,884.828L322.288,884.828L322.254,858.741C322.241,848.316 313.779,839.875 303.354,839.889L265.601,839.937C255.175,839.95 246.735,848.412 246.748,858.837L246.781,884.828L220.246,884.828L220.246,177.788L246.781,177.788L246.814,203.874C246.827,214.299 255.29,222.74 265.715,222.727L303.468,222.679C313.893,222.666 322.334,214.203 322.321,203.778L322.288,177.788ZM303.468,788.262C313.893,788.249 322.334,779.787 322.321,769.361L322.254,717.285C322.241,706.859 313.779,698.419 303.354,698.432L265.601,698.48C255.175,698.493 246.735,706.956 246.748,717.381L246.814,769.458C246.827,779.883 255.29,788.323 265.715,788.31L303.468,788.262ZM303.468,646.866C313.893,646.853 322.334,638.391 322.321,627.966L322.254,575.889C322.241,565.464 313.779,557.023 303.354,557.036L265.601,557.084C255.175,557.098 246.735,565.56 246.748,575.985L246.814,628.062C246.827,638.487 255.29,646.928 265.715,646.914L303.468,646.866ZM303.468,505.47C313.893,505.457 322.334,496.995 322.321,486.57L322.254,434.493C322.241,424.068 313.779,415.627 303.354,415.64L265.601,415.688C255.175,415.702 246.735,424.164 246.748,434.589L246.814,486.666C246.827,497.091 255.29,505.532 265.715,505.518L303.468,505.47ZM303.468,364.075C313.893,364.061 322.334,355.599 322.321,345.174L322.254,293.097C322.241,282.672 313.779,274.231 303.354,274.245L265.601,274.293C255.175,274.306 246.735,282.768 246.748,293.193L246.814,345.27C246.827,355.695 255.29,364.136 265.715,364.123L303.468,364.075Z" style="fill:rgb(34,54,75);"/><path d="M713.792,375.567C713.792,356.512 698.345,341.065 679.29,341.065L383.325,341.065C364.27,341.065 348.823,356.512 348.823,375.567L348.823,687.049C348.823,706.104 364.27,721.551 383.325,721.551L679.29,721.551C698.345,721.551 713.792,706.104 713.792,687.049L713.792,375.567Z" style="fill:rgb(134,134,134);"/><path d="M715.811,177.788L715.811,273.318C715.811,292.373 700.279,307.82 681.118,307.82L383.516,307.82C364.356,307.82 348.823,292.373 348.823,273.318L348.823,177.788L715.811,177.788Z" style="fill:rgb(134,134,134);"/><path d="M715.811,884.828L715.811,789.298C715.811,770.243 700.279,754.796 681.118,754.796L383.516,754.796C364.356,754.796 348.823,770.243 348.823,789.298L348.823,884.828L715.811,884.828Z" style="fill:rgb(134,134,134);"/><circle cx="532.317" cy="531.308" r="146.358" style="fill:rgb(196,61,61);"/><path d="M633.629,531.308L481.008,615.108L481.008,447.507L633.629,531.308Z" style="fill:rgb(255,245,245);"/></g></g></svg>